<?xml version="1.0" encoding="UTF-8"?><svg id="a" xmlns="http://www.w3.org/2000/svg" viewBox="0 0 438.36 117.06"><path d="M98.82,18.74c-9.5,25.51-28.41,26.12-28.41,26.12,0,0,31.35-30.74,28.19-42.4,0,0-20.41-15.79-47.14,32.68,0,0-13.61,3.28,10.21-33.41,0,0-38.72,.27-25.49,49.95h0s5.82,9.46-1.72,6.85c-6.32-2.2-6.57-29.53-6.48-38.29,.01-1.24-1.33-2.03-2.4-1.4-3.69,2.15-10.25,6.95-10.07,13.77,.24,9.48,6.72,30.7,11.87,37.46,2.53,3.32-10.47,6.3-13.87-14.93-.62-3.87-3.71,.48-6.03,2.62-.55,.51-.89,1.19-.97,1.93-.34,3.31-1.03,12.86,1.96,17.09,3.64,5.16,15.13,14.64,15.13,14.64,0,0,1.56,5.5-5.81,2.99-7.37-2.51-13.45-13.2-13.45-13.2,0,0-5.35,2.2-4.13,4.87s5.96,29.4,23.39,18.7c0,0-3.96,16.72,14.99,8.94,0,0,2.52,4.18,6.25,3.21,2.41-.63,10.33-7.87,15.64-12.91,1.12-1.07,.05-2.92-1.43-2.47-5.35,1.62-13.04,3.07-19.17,.77-5.47-2.06-5.27-6.98-5.27-6.98,0,0,22.05,11.17,42.64-11.88-5.1-7.38-21.66,5.53-23.24,.82,13.01-2.92,40.44-11.5,40-19.28-.13-2.31-.08-1.58-.29-4.31-.07-.93-3.28-2.03-4.3-1.2-12.5,10.2-28.94,10.55-28.94,10.55,0,0-3.3-1.44-2.19-2.55,2.37-2.38,35.23-20.05,34.26-22.6s8.26-14.46,9.96-18.17c1.7-3.71-3.66-7.95-3.66-7.95ZM46.59,60.01c-2.25,3.99-4.29,7.89-6.12,11.58-.06,.12,3.6,12.42,49.77-7.14,0,0-34.58,20.04-50.75,9.14-1.89,3.89-3.54,7.53-4.96,10.79,.29,1.39,4.79,11.99,33.29,1.7,0,0-24.26,15.23-34.38,.83-2.23,5.26-4.34,9.17-4.66,11.55-1.82,13.3,23.29,9,23.29,9-24.19,8.04-26.16-8.93-26.16-8.93,0,0-11.77,11.77-21.52-9.74,0,0,13.05,17.49,23.5,5.36l-.02,.04c.75-1.74,2.9-6.6,2.9-6.6-21.79-11.42-19.97-25.76-19.97-25.76,0,0,3.59,17.92,20.76,24.03,0,0,3.57-7.75,6.02-12.71h0c-24.88-24.39-12.82-40.1-12.82-40.1-8.14,16.18,13.89,37.96,13.89,37.96,0,0,4.17-8.19,6.57-12.58h0c-8.39-15.87-3.7-32.96-.62-40.9,.42-1.14,.9-2.27,1.44-3.4,.35-.74,.57-1.15,.57-1.15-.2,.38-.38,.77-.57,1.15-.36,.78-.88,1.93-1.44,3.4-6.35,17.28,.81,36.02,1.88,38.63C59.5,32.71,76.93,7.92,92.7,7.15c-23.12,9.3-34.98,33.37-45.48,51.75,26.75-6.48,42.49-18.11,42.49-18.11-29.18,19.76-43.63,20.15-43.11,19.22Z"/><g><path d="M153.33,76.38c.88,1.48,1.63,2.77,2.23,3.87,.6,1.11,1.22,2.35,1.86,3.73h.48c-.12-1.5-.23-4.48-.33-8.95-.1-4.46-.15-8.49-.15-12.08v-7.75c0-1.7-.05-2.94-.15-3.73-.1-.79-.28-1.39-.53-1.81-.26-.42-.61-.76-1.07-1.01-.46-.26-1.25-.55-2.38-.87v-1.81h13.28v1.81c-1.11,.3-1.89,.57-2.34,.81-.46,.25-.82,.57-1.11,.96-.28,.39-.5,.98-.65,1.77-.15,.79-.22,2.08-.22,3.87v41.35h-4.61l-20.55-34.45c-1.28-2.14-2.19-3.7-2.73-4.68-.54-.98-1.05-1.96-1.51-2.91h-.63c.17,1.89,.29,5.32,.37,10.27,.07,4.96,.11,9.89,.11,14.81v7.53c0,1.65,.06,2.85,.17,3.61,.11,.76,.29,1.36,.55,1.81,.26,.44,.64,.81,1.14,1.11,.5,.29,1.32,.59,2.45,.89v1.81h-13.46v-1.81c1.52-.39,2.55-.83,3.06-1.31,.52-.48,.85-1.16,1.01-2.05,.16-.89,.24-2.24,.24-4.06v-31.91c0-1.7-.06-2.93-.18-3.71-.12-.77-.33-1.38-.61-1.81-.28-.43-.66-.77-1.13-1.03-.47-.26-1.27-.55-2.4-.87v-1.81h11.55l18.22,30.4Z"/><path d="M198.59,96.34v-1.81c1.23-.25,2.15-.52,2.75-.81,.6-.29,1.05-.71,1.35-1.24,.29-.53,.44-1.24,.44-2.12,0-.84-.1-1.74-.29-2.71-.2-.97-.48-2.06-.85-3.26l-1.36-4.76h-17.19l-1.25,3.61c-.64,1.82-1.06,3.2-1.25,4.13-.2,.93-.3,1.78-.3,2.55,0,1.48,.37,2.56,1.13,3.25,.75,.69,1.9,1.14,3.45,1.36v1.81h-15.75v-1.81c1.38-.22,2.58-1.02,3.6-2.4,1.02-1.38,2.01-3.34,2.97-5.9l15.38-40.84h5.83l12.54,41.13c.59,1.92,1.11,3.38,1.57,4.39,.45,1.01,1,1.8,1.64,2.36,.64,.57,1.51,.98,2.62,1.25v1.81h-17.01Zm-14.16-19.92h15.42l-7.01-23.79-8.41,23.79Z"/><path d="M229.32,45.98v1.81c-1.13,.2-1.99,.44-2.58,.74-.59,.3-1.03,.71-1.33,1.25-.29,.54-.44,1.27-.44,2.18,0,.84,.1,1.74,.29,2.71,.2,.97,.48,2.06,.85,3.26l8.63,30.1,10.59-30.32c.15-.47,.3-.96,.44-1.48s.28-1.02,.39-1.51c.11-.49,.18-.92,.22-1.29,.04-.37,.06-.71,.06-1.03,0-1.48-.34-2.55-1.01-3.23-.68-.68-1.83-1.14-3.45-1.38v-1.81h15.49v1.81c-1.01,.25-1.82,.6-2.43,1.07-.61,.47-1.22,1.22-1.83,2.25-.6,1.03-1.33,2.68-2.2,4.94l-15.31,40.87h-4.83l-12.43-41.13c-.66-2.24-1.24-3.83-1.73-4.78-.49-.95-1.03-1.66-1.62-2.14-.59-.48-1.4-.84-2.43-1.09v-1.81h16.67Z"/><path d="M280.44,96.34v-1.81c1.23-.25,2.15-.52,2.75-.81,.6-.29,1.05-.71,1.35-1.24,.29-.53,.44-1.24,.44-2.12,0-.84-.1-1.74-.29-2.71-.2-.97-.48-2.06-.85-3.26l-1.36-4.76h-17.19l-1.25,3.61c-.64,1.82-1.06,3.2-1.25,4.13-.2,.93-.3,1.78-.3,2.55,0,1.48,.37,2.56,1.13,3.25,.75,.69,1.9,1.14,3.45,1.36v1.81h-15.75v-1.81c1.38-.22,2.58-1.02,3.6-2.4,1.02-1.38,2.01-3.34,2.97-5.9l15.38-40.84h5.83l12.54,41.13c.59,1.92,1.11,3.38,1.57,4.39,.46,1.01,1,1.8,1.64,2.36,.64,.57,1.51,.98,2.62,1.25v1.81h-17.01Zm-14.17-19.92h15.42l-7.01-23.79-8.41,23.79Z"/><path d="M313.86,74.46v12.54c0,1.77,.07,3.06,.2,3.85,.14,.8,.34,1.4,.61,1.81,.27,.41,.64,.74,1.11,1,.47,.26,1.27,.55,2.4,.87v1.81h-15.57v-1.81c1.52-.39,2.55-.83,3.06-1.31,.52-.48,.85-1.16,1.01-2.05,.16-.89,.24-2.24,.24-4.06v-31.91c0-1.7-.06-2.93-.18-3.71-.12-.77-.33-1.38-.61-1.81-.28-.43-.66-.77-1.13-1.03-.47-.26-1.27-.55-2.4-.87v-1.81h18.26c5.75,0,10.06,1.05,12.91,3.14,2.85,2.09,4.28,5.34,4.28,9.74,0,3.37-.93,6.23-2.79,8.59-1.86,2.36-4.64,4.21-8.36,5.53v.3c1.5,.61,2.79,1.49,3.85,2.64,1.07,1.14,2.26,2.92,3.56,5.33l3.32,6.05c.96,1.77,1.78,3.12,2.47,4.06,.69,.93,1.39,1.65,2.1,2.14,.71,.49,1.66,.84,2.84,1.03v1.81h-10.22c-.93-1.3-1.82-2.7-2.66-4.21-.84-1.5-1.66-3.02-2.47-4.57l-3.25-6.16c-.98-1.87-1.79-3.25-2.42-4.13s-1.21-1.51-1.73-1.86c-.53-.36-1.09-.6-1.7-.74-.6-.13-1.51-.2-2.71-.2h-4.06Zm0-25.08v21.91h4.17c2.14,0,3.87-.15,5.2-.46,1.33-.31,2.56-.89,3.69-1.75,1.13-.86,2.03-2.06,2.71-3.6,.68-1.54,1.01-3.42,1.01-5.66s-.4-4.28-1.2-5.83c-.8-1.55-2.01-2.73-3.63-3.54s-3.81-1.22-6.57-1.22c-2.21,0-4.01,.05-5.39,.15Z"/><path d="M360.78,74.46v12.54c0,1.77,.07,3.06,.2,3.85,.14,.8,.34,1.4,.61,1.81,.27,.41,.64,.74,1.11,1,.47,.26,1.27,.55,2.4,.87v1.81h-15.57v-1.81c1.52-.39,2.55-.83,3.06-1.31,.52-.48,.85-1.16,1.01-2.05,.16-.89,.24-2.24,.24-4.06v-31.91c0-1.7-.06-2.93-.18-3.71-.12-.77-.33-1.38-.61-1.81-.28-.43-.66-.77-1.13-1.03-.47-.26-1.27-.55-2.4-.87v-1.81h18.26c5.75,0,10.06,1.05,12.91,3.14,2.85,2.09,4.28,5.34,4.28,9.74,0,3.37-.93,6.23-2.79,8.59-1.86,2.36-4.64,4.21-8.36,5.53v.3c1.5,.61,2.79,1.49,3.85,2.64,1.07,1.14,2.26,2.92,3.56,5.33l3.32,6.05c.96,1.77,1.78,3.12,2.47,4.06,.69,.93,1.39,1.65,2.1,2.14,.71,.49,1.66,.84,2.84,1.03v1.81h-10.22c-.93-1.3-1.82-2.7-2.66-4.21-.84-1.5-1.66-3.02-2.47-4.57l-3.25-6.16c-.98-1.87-1.79-3.25-2.42-4.13s-1.21-1.51-1.73-1.86c-.53-.36-1.09-.6-1.7-.74-.6-.13-1.51-.2-2.71-.2h-4.06Zm0-25.08v21.91h4.17c2.14,0,3.87-.15,5.2-.46,1.33-.31,2.56-.89,3.69-1.75,1.13-.86,2.03-2.06,2.71-3.6,.68-1.54,1.01-3.42,1.01-5.66s-.4-4.28-1.2-5.83c-.8-1.55-2.01-2.73-3.63-3.54s-3.81-1.22-6.57-1.22c-2.21,0-4.01,.05-5.39,.15Z"/><path d="M421.36,96.34v-1.81c1.23-.25,2.15-.52,2.75-.81,.6-.29,1.05-.71,1.35-1.24,.29-.53,.44-1.24,.44-2.12,0-.84-.1-1.74-.29-2.71-.2-.97-.48-2.06-.85-3.26l-1.36-4.76h-17.19l-1.25,3.61c-.64,1.82-1.06,3.2-1.25,4.13-.2,.93-.29,1.78-.29,2.55,0,1.48,.37,2.56,1.13,3.25,.75,.69,1.9,1.14,3.45,1.36v1.81h-15.75v-1.81c1.38-.22,2.58-1.02,3.6-2.4,1.02-1.38,2.01-3.34,2.97-5.9l15.38-40.84h5.83l12.54,41.13c.59,1.92,1.11,3.38,1.57,4.39,.45,1.01,1,1.8,1.64,2.36,.64,.57,1.51,.98,2.62,1.25v1.81h-17.01Zm-14.16-19.92h15.42l-7.01-23.79-8.41,23.79Z"/></g></svg>